<mxfile host="Electron" modified="2023-05-10T08:04:03.233Z" agent="Mozilla/5.0 (Windows NT 10.0; Win64; x64) AppleWebKit/537.36 (KHTML, like Gecko) draw.io/21.2.8 Chrome/112.0.5615.165 Electron/24.2.0 Safari/537.36" etag="f8yNsc98SY17gDfEzIi5" version="21.2.8" type="device">
  <diagram name="第 1 页" id="y5iRbW42zRHp09v9Zyek">
    <mxGraphModel dx="1036" dy="614" grid="1" gridSize="10" guides="1" tooltips="1" connect="1" arrows="1" fold="1" page="1" pageScale="1" pageWidth="827" pageHeight="1169" math="0" shadow="0">
      <root>
        <mxCell id="0" />
        <mxCell id="1" parent="0" />
        <mxCell id="j2sneMJ8auZph_v6jy88-5" value="" style="edgeStyle=orthogonalEdgeStyle;rounded=0;orthogonalLoop=1;jettySize=auto;html=1;" edge="1" parent="1" source="j2sneMJ8auZph_v6jy88-1" target="j2sneMJ8auZph_v6jy88-2">
          <mxGeometry relative="1" as="geometry" />
        </mxCell>
        <mxCell id="j2sneMJ8auZph_v6jy88-1" value="&lt;font style=&quot;font-size: 24px;&quot;&gt;開始配筋&lt;/font&gt;" style="rounded=1;whiteSpace=wrap;html=1;" vertex="1" parent="1">
          <mxGeometry x="360" y="40" width="120" height="60" as="geometry" />
        </mxCell>
        <mxCell id="j2sneMJ8auZph_v6jy88-7" value="" style="edgeStyle=orthogonalEdgeStyle;rounded=0;orthogonalLoop=1;jettySize=auto;html=1;" edge="1" parent="1" source="j2sneMJ8auZph_v6jy88-2" target="j2sneMJ8auZph_v6jy88-6">
          <mxGeometry relative="1" as="geometry" />
        </mxCell>
        <mxCell id="j2sneMJ8auZph_v6jy88-2" value="&lt;font style=&quot;font-size: 24px;&quot;&gt;計算扭矩筋支數&lt;/font&gt;" style="rounded=0;whiteSpace=wrap;html=1;" vertex="1" parent="1">
          <mxGeometry x="360" y="180" width="120" height="60" as="geometry" />
        </mxCell>
        <mxCell id="j2sneMJ8auZph_v6jy88-9" value="" style="edgeStyle=orthogonalEdgeStyle;rounded=0;orthogonalLoop=1;jettySize=auto;html=1;" edge="1" parent="1" source="j2sneMJ8auZph_v6jy88-6" target="j2sneMJ8auZph_v6jy88-8">
          <mxGeometry relative="1" as="geometry" />
        </mxCell>
        <mxCell id="j2sneMJ8auZph_v6jy88-6" value="&lt;font style=&quot;font-size: 24px;&quot;&gt;計算主筋支數&lt;/font&gt;" style="rounded=0;whiteSpace=wrap;html=1;" vertex="1" parent="1">
          <mxGeometry x="360" y="320" width="120" height="60" as="geometry" />
        </mxCell>
        <mxCell id="j2sneMJ8auZph_v6jy88-11" value="" style="edgeStyle=orthogonalEdgeStyle;rounded=0;orthogonalLoop=1;jettySize=auto;html=1;" edge="1" parent="1" source="j2sneMJ8auZph_v6jy88-8" target="j2sneMJ8auZph_v6jy88-10">
          <mxGeometry relative="1" as="geometry" />
        </mxCell>
        <mxCell id="j2sneMJ8auZph_v6jy88-8" value="&lt;font style=&quot;font-size: 24px;&quot;&gt;初始化&lt;br&gt;參數&lt;/font&gt;" style="rounded=0;whiteSpace=wrap;html=1;" vertex="1" parent="1">
          <mxGeometry x="360" y="460" width="120" height="60" as="geometry" />
        </mxCell>
        <mxCell id="j2sneMJ8auZph_v6jy88-15" value="" style="edgeStyle=orthogonalEdgeStyle;rounded=0;orthogonalLoop=1;jettySize=auto;html=1;" edge="1" parent="1" source="j2sneMJ8auZph_v6jy88-10" target="j2sneMJ8auZph_v6jy88-14">
          <mxGeometry relative="1" as="geometry" />
        </mxCell>
        <mxCell id="j2sneMJ8auZph_v6jy88-10" value="&lt;span style=&quot;font-size: 24px;&quot;&gt;將參數存成向量&lt;/span&gt;" style="rounded=0;whiteSpace=wrap;html=1;" vertex="1" parent="1">
          <mxGeometry x="360" y="600" width="120" height="60" as="geometry" />
        </mxCell>
        <mxCell id="j2sneMJ8auZph_v6jy88-17" value="" style="edgeStyle=orthogonalEdgeStyle;rounded=0;orthogonalLoop=1;jettySize=auto;html=1;" edge="1" parent="1" source="j2sneMJ8auZph_v6jy88-14" target="j2sneMJ8auZph_v6jy88-16">
          <mxGeometry relative="1" as="geometry" />
        </mxCell>
        <mxCell id="j2sneMJ8auZph_v6jy88-14" value="&lt;span style=&quot;font-size: 24px;&quot;&gt;算M&lt;/span&gt;" style="rounded=0;whiteSpace=wrap;html=1;" vertex="1" parent="1">
          <mxGeometry x="360" y="740" width="120" height="60" as="geometry" />
        </mxCell>
        <mxCell id="j2sneMJ8auZph_v6jy88-19" value="&lt;font style=&quot;font-size: 24px;&quot;&gt;未通過&lt;/font&gt;" style="edgeStyle=orthogonalEdgeStyle;rounded=0;orthogonalLoop=1;jettySize=auto;html=1;" edge="1" parent="1" source="j2sneMJ8auZph_v6jy88-16" target="j2sneMJ8auZph_v6jy88-18">
          <mxGeometry y="-20" relative="1" as="geometry">
            <mxPoint as="offset" />
          </mxGeometry>
        </mxCell>
        <mxCell id="j2sneMJ8auZph_v6jy88-31" value="" style="edgeStyle=orthogonalEdgeStyle;rounded=0;orthogonalLoop=1;jettySize=auto;html=1;" edge="1" parent="1" source="j2sneMJ8auZph_v6jy88-16" target="j2sneMJ8auZph_v6jy88-28">
          <mxGeometry relative="1" as="geometry" />
        </mxCell>
        <mxCell id="j2sneMJ8auZph_v6jy88-16" value="&lt;font style=&quot;font-size: 24px;&quot;&gt;φMn&amp;gt;=Mu&lt;/font&gt;" style="rhombus;whiteSpace=wrap;html=1;rounded=0;" vertex="1" parent="1">
          <mxGeometry x="360" y="870" width="120" height="80" as="geometry" />
        </mxCell>
        <mxCell id="j2sneMJ8auZph_v6jy88-22" value="" style="edgeStyle=orthogonalEdgeStyle;rounded=0;orthogonalLoop=1;jettySize=auto;html=1;" edge="1" parent="1" source="j2sneMJ8auZph_v6jy88-18" target="j2sneMJ8auZph_v6jy88-21">
          <mxGeometry relative="1" as="geometry" />
        </mxCell>
        <mxCell id="j2sneMJ8auZph_v6jy88-18" value="&lt;font style=&quot;font-size: 24px;&quot;&gt;增加支數&lt;/font&gt;" style="whiteSpace=wrap;html=1;rounded=0;" vertex="1" parent="1">
          <mxGeometry x="160" y="880" width="120" height="60" as="geometry" />
        </mxCell>
        <mxCell id="j2sneMJ8auZph_v6jy88-23" value="&lt;font style=&quot;font-size: 24px;&quot;&gt;未超出&lt;/font&gt;" style="edgeStyle=orthogonalEdgeStyle;rounded=0;orthogonalLoop=1;jettySize=auto;html=1;" edge="1" parent="1" source="j2sneMJ8auZph_v6jy88-21" target="j2sneMJ8auZph_v6jy88-10">
          <mxGeometry y="20" relative="1" as="geometry">
            <mxPoint as="offset" />
          </mxGeometry>
        </mxCell>
        <mxCell id="j2sneMJ8auZph_v6jy88-25" value="&lt;font style=&quot;font-size: 24px;&quot;&gt;超&lt;br&gt;出&lt;/font&gt;" style="edgeStyle=orthogonalEdgeStyle;rounded=0;orthogonalLoop=1;jettySize=auto;html=1;" edge="1" parent="1" source="j2sneMJ8auZph_v6jy88-21" target="j2sneMJ8auZph_v6jy88-24">
          <mxGeometry x="-0.1429" y="20" relative="1" as="geometry">
            <mxPoint as="offset" />
          </mxGeometry>
        </mxCell>
        <mxCell id="j2sneMJ8auZph_v6jy88-21" value="&lt;font style=&quot;font-size: 24px;&quot;&gt;是否超出最大量&lt;/font&gt;" style="rhombus;whiteSpace=wrap;html=1;rounded=0;" vertex="1" parent="1">
          <mxGeometry x="160" y="590" width="120" height="80" as="geometry" />
        </mxCell>
        <mxCell id="j2sneMJ8auZph_v6jy88-27" value="" style="edgeStyle=orthogonalEdgeStyle;rounded=0;orthogonalLoop=1;jettySize=auto;html=1;" edge="1" parent="1" source="j2sneMJ8auZph_v6jy88-24" target="j2sneMJ8auZph_v6jy88-26">
          <mxGeometry relative="1" as="geometry" />
        </mxCell>
        <mxCell id="j2sneMJ8auZph_v6jy88-24" value="&lt;font style=&quot;font-size: 24px;&quot;&gt;提出警告&lt;/font&gt;" style="whiteSpace=wrap;html=1;rounded=0;" vertex="1" parent="1">
          <mxGeometry x="160" y="460" width="120" height="60" as="geometry" />
        </mxCell>
        <mxCell id="j2sneMJ8auZph_v6jy88-26" value="&lt;font style=&quot;font-size: 24px;&quot;&gt;結束配筋&lt;/font&gt;" style="rounded=1;whiteSpace=wrap;html=1;" vertex="1" parent="1">
          <mxGeometry x="160" y="320" width="120" height="60" as="geometry" />
        </mxCell>
        <mxCell id="j2sneMJ8auZph_v6jy88-28" value="&lt;font style=&quot;font-size: 24px;&quot;&gt;結束配筋&lt;/font&gt;" style="rounded=1;whiteSpace=wrap;html=1;" vertex="1" parent="1">
          <mxGeometry x="360" y="1040" width="120" height="60" as="geometry" />
        </mxCell>
      </root>
    </mxGraphModel>
  </diagram>
</mxfile>
